<svg xmlns="http://www.w3.org/2000/svg" height="48" width="48"><path d="M9 41.3Q7.75 41.3 6.875 40.425Q6 39.55 6 38.3V9.2Q6 7.95 6.875 7.075Q7.75 6.2 9 6.2H18.25Q18.55 4.5 20.075 3.25Q21.6 2 23.55 2Q25.5 2 27.025 3.225Q28.55 4.45 28.85 6.2H38.1Q39.35 6.2 40.225 7.075Q41.1 7.95 41.1 9.2V24.4H38.1V9.2Q38.1 9.2 38.1 9.2Q38.1 9.2 38.1 9.2H32.8V15.7H14.3V9.2H9Q9 9.2 9 9.2Q9 9.2 9 9.2V38.3Q9 38.3 9 38.3Q9 38.3 9 38.3H22.2V41.3ZM23.55 9.4Q24.45 9.4 25.1 8.75Q25.75 8.1 25.75 7.2Q25.75 6.3 25.1 5.65Q24.45 5 23.55 5Q22.65 5 22 5.65Q21.35 6.3 21.35 7.2Q21.35 8.1 22 8.75Q22.65 9.4 23.55 9.4ZM36.7 42 34.6 39.9 38.3 36.2H25.2V33.2H38.3L34.6 29.5L36.7 27.4L44 34.7Z"/></svg>